<svg xmlns="http://www.w3.org/2000/svg" width="100" height="100" viewBox="0 0 50 50"
    style="color: #1f2937;">
    <path
        d="M27.521 14.6726L30.4583 23.9658H40.31L32.2693 28.9847L35.1204 37.9469L27.521 32.3632L19.9065 37.9371L22.7727 28.9847L14.7067 23.9658H24.5888L27.521 14.6726Z"
        fill="currentColor"></path>
    <mask id="mask0_374_606" maskUnits="userSpaceOnUse" x="8" y="9" width="39" height="37"
        style="mask-type: luminance;">
        <path
            d="M27.521 45.5458C37.9714 45.5458 46.4432 37.4162 46.4432 27.3879C46.4432 17.3596 37.9714 9.22998 27.521 9.22998C17.0705 9.22998 8.59875 17.3596 8.59875 27.3879C8.59875 37.4162 17.0705 45.5458 27.521 45.5458Z"
            fill="white"></path>
    </mask>
    <g mask="url(#mask0_374_606)">
        <path d="M27.5209 14.6724L20.8702 10.3836L27.5209 0L34.1716 10.3836L27.5209 14.6724Z"
            fill="currentColor"></path>
        <path d="M19.9064 37.9369L22.8081 45.1027L11.1656 49.9756L11.8962 37.8054L19.9064 37.9369Z"
            fill="currentColor"></path>
        <path d="M14.7066 23.9654L8.59871 28.9308L0 19.959L12.2259 16.6536L14.7066 23.9654Z"
            fill="currentColor"></path>
        <path d="M35.1202 37.9515L43.1254 37.8298L43.8407 50L32.2032 45.1076L35.1202 37.9515Z"
            fill="currentColor"></path>
    </g>
</svg>