<svg version="1.2" xmlns="http://www.w3.org/2000/svg" viewBox="0 0 800 800" width="300" height="300"><style></style><path fill-rule="evenodd" d="m190.5 127.3v0.1q0 0 0 0zm518.4 577.9q0 8-0.7 16.6c-0.4 4.1-1.9 7.3-3.7 10-1.8 2.7-4 5-6.5 7.2-4.9 4.3-11.1 8.2-18.8 12.2-15.3 7.9-36.5 15.7-63.1 22.9-53.1 14.4-127.5 25.9-215.7 25.9-108.5-0.1-196-17.3-248.9-36.2q-26.5-9.5-41.5-19.4c-5.6-3.8-10.2-7.5-13.6-12.6-1.8-2.7-3.3-5.9-3.7-10q-0.7-8.6-0.7-16.6c0-23.2 4.4-42.9 12.1-59.6 7.6-16.6 18.5-30 31-40.7 24.8-21.3 55.4-32.1 81.3-39.6 17.2-4.9 32.6-8.4 42.1-11.8 8.1-2.9 17.4-6.9 25.5-11.4 8.1-4.6 14.9-9.9 18.2-14.4 2.2-2.9 2.8-5 2.8-6.4-2 0-4.2 0-6.5 0-12.3 0-28.4-0.1-43.8-0.8-15.4-0.7-29.7-1.7-39.9-3.9-2.9-0.7-5.6-1.4-8.4-2.8-1.5-0.7-3.1-1.6-4.8-3.3q-0.1-0.1-0.2-0.1 0-0.1 0-0.1c-1.5-1.5-2.9-3.1-4.8-5.4-2-2.3-4.3-5.2-7-8.6-5.3-6.7-12-15.2-19-24.3v-0.1c-10-13-20.7-27.5-29.7-40-8.4-11.7-15.2-21.5-19-28.1-1.3-2.3-2.3-3.9-3.2-7-0.3-0.9-0.5-1.9-0.6-3.8 0.1-1.6 0.2-1.9 0.3-2.6l0.3-1.8q0.4-2 1.1-4.8c0-0.1 0-0.3 0-0.4 1.9-7.9 5.4-21.7 10-39.5l0.1-0.2c3-11.2 6.5-24.3 10.3-38.2 3.3-12.7 7-26.1 10.8-39.8 3.4-12.7 7-25.6 10.6-38.4 3.8-13.5 7.6-26.9 11.3-39.8l0.2-0.4c1.9-6.7 3.8-13.3 5.7-19.8 4.3-14.7 8.5-28.2 12.2-40q0 0 0-0.1c5.4-17.1 9.8-30.2 13.1-37.9l0.2-0.3 0.1-0.3c0.8-1.6 1.4-3 2.6-5l-0.2 0.3 0.2-0.3q0 0 0 0c1.5-2.3 3-4.1 4.9-6 1.9-2 4.1-4 6.6-6.2 5.1-4.3 11.6-9.2 19.3-14.5 14.2-9.7 32.7-20.6 54-30.2 12-5.5 24.9-10.6 38.4-14.8h-0.1c21.6-6.8 44.8-11.3 68.2-11.8v-0.2c0.7 0 1.5 0.1 2.2 0.1 0.8 0 1.5-0.1 2.2-0.1v0.2c23.5 0.5 46.6 5 68.2 11.8 13.5 4.2 26.3 9.3 38.4 14.8 21.3 9.6 39.8 20.5 54 30.2 11.5 8 20.2 15 25.8 20.7 1.9 1.9 3.5 3.7 4.9 6l0.1 0.1-0.1-0.1c1.2 2 1.8 3.4 2.6 5l0.2 0.3 0.1 0.3c3.3 7.8 7.8 20.9 13.2 38 3.7 11.8 7.9 25.3 12.1 40v-0.2 0.1c1.9 6.5 3.9 13.1 5.8 19.9l0.1 0.4c3.7 12.9 7.5 26.3 11.4 39.8 3.5 12.8 7.1 25.7 10.5 38.4 3.9 13.7 7.6 27.1 10.9 39.8 3.8 13.9 7.2 27 10.3 38.2v0.1c4.7 18.1 8.2 32.2 10.1 40l-0.1-0.4 0.1 0.4c0.7 2.9 1.1 4.9 1.4 6.6 0.1 0.7 0.2 1 0.2 2.6 0 1.9-0.3 2.9-0.5 3.8l-0.8 2.2c-0.5 1.3-1.1 2.3-1.7 3.5-1.2 2.3-2.8 4.8-4.7 7.8-3.9 5.9-9.1 13.3-15 21.6-9 12.5-19.7 27-29.7 40v0.1c-10.6 13.7-20.2 25.9-26 32.9-2 2.3-3.4 3.9-4.9 5.4q0 0 0 0.1-0.1 0-0.1 0.1h-0.1c-1.7 1.7-3.3 2.6-4.7 3.3-1.6 0.7-3 1.3-4.5 1.7-2.9 0.9-6.1 1.6-9.6 2.1-6.9 1.1-15.3 1.9-24.3 2.4-18.1 1.1-38.8 1.3-53.8 1.3-2.3 0-4.5 0-6.6 0 0 1.7 0.6 3.6 2.6 6.4 2 2.7 5.5 6 10 9.1 9 6.3 21.9 12.2 34.1 16.8 7 2.6 17.4 5.3 29.3 8.6 12 3.3 25.6 7.1 39.5 12.3 27.7 10.5 57.2 26.6 76.7 55.7 12.9 19.3 20.8 44.2 20.8 75zm-501.9-621.5q0 0 0 0z"/></svg>